<?xml version="1.0" encoding="utf-8"?>
<!-- Generator: Adobe Illustrator 24.0.1, SVG Export Plug-In . SVG Version: 6.00 Build 0)  -->
<svg version="1.1" id="Layer_1" xmlns="http://www.w3.org/2000/svg" xmlns:xlink="http://www.w3.org/1999/xlink" x="0px" y="0px"
	 viewBox="0 0 427.36 66.99" style="enable-background:new 0 0 427.36 66.99;" xml:space="preserve">
<style type="text/css">
	.st0{fill:none;stroke:#000000;stroke-width:0.072;stroke-miterlimit:10;}
	.st1{fill:#FFFFFF;stroke:#010101;stroke-width:0.072;stroke-miterlimit:3;}
	.st2{fill:none;stroke:#231F20;stroke-width:0.072;stroke-miterlimit:10;}
	.st3{fill:#FFFFFF;stroke:#000000;stroke-width:0.072;stroke-miterlimit:10;}
	.st4{fill:none;stroke:#010101;stroke-width:0.072;stroke-miterlimit:10;}
</style>
<g>
	<g>
		<path class="st0" d="M247.12,26.76c0,0,1.11-0.25,1.74-0.3c1.24-0.09,2.16,0.38,3.06,1.3l0.21,0.22c0.18,0.2,0.41,0.57,0.56,0.83
			c0,0,0,0,0,0.01c0.2,0.35,0.29,0.75,0.29,1.16c0.01,1.74,0.05,8.28,0.02,11.84c0,0.5-0.08,0.99-0.22,1.47l-3.27,10.87
			c-0.26,0.67-0.28,0.89-1.03,0.89c-5.87,0-11.22,0-17.05,0c-0.43,0-0.84-0.23-1.07-0.6l-8.37-13.77c-0.38-0.67-0.65-1.4-0.79-2.17
			c-0.03-0.17-0.05-0.33-0.05-0.46c-0.03-1.92,0.04-3.84-0.03-5.75c-0.08-2.17,1.51-2.69,3.34-2.94c0.79-0.11,1.59-0.04,2.37,0.14
			c0.13,0.03,0.26,0.04,0.45,0.08c0-0.18,0-0.32,0-0.45c0-4.69,0.01-9.38-0.01-14.07c0-1.16,0.57-2.01,1.53-2.68
			c0.68-0.48,2.08-0.59,2.54-0.5c0.69,0.13,1.33,0.36,1.87,0.76c0.75,0.56,1.13,1.3,1.14,2.19c0.01,2.74,0.01,6.09,0,8.83
			 M234.36,24.53c0.08-0.12,0.65-0.48,0.79-0.55c1.3-0.59,3.29-0.51,4.59,0.09c0.53,0.24,0.98,0.75,0.99,1.34l0,6.25"/>
	</g>
	<line class="st0" x1="227.28" y1="29.58" x2="227.32" y2="37.87"/>
	<line class="st0" x1="234.35" y1="23.66" x2="234.26" y2="31.49"/>
	<path class="st0" d="M240.62,24.8c0.19-0.1,0.62-0.27,0.77-0.33c0.04-0.01,0.07-0.03,0.11-0.04c0.74-0.22,1.22-0.26,2.15-0.21
		c0.48,0.03,0.85,0.09,1.21,0.19c0.57,0.16,1.09,0.46,1.5,0.86c0.18,0.17,0.32,0.38,0.45,0.59c0.01,0.01,0.06,0.11,0.11,0.22
		c0.11,0.21,0.16,0.44,0.16,0.67l-0.04,4.5"/>
	<circle class="st0" cx="239.73" cy="50.42" r="1.8"/>
</g>
<g>
	<path id="path6709" class="st1" d="M268.17,55.05h13.64c1.48,0,2.83-0.92,3.31-2.31l3.22-8.89c0.17-0.44,0.17-0.74,0.17-1.18V31.43
		c0-1.66-1-3.18-2.57-3.75c-1.74-0.65-3.66-0.92-3.66-0.26v4.23v-4.01c0-1.57-1.18-3.01-2.83-3.18c-1.66-0.17-3.4,0-3.4,1.09v4.62
		V15.44c0-2.57-2.75-4.4-5.1-3.22l0,0c-0.65,0.35-1.05,1.05-1.05,1.79v16.43v-5.01c0-0.92-2.18-1.18-4.01-0.92
		c-1.26,0.17-2.27,1.26-2.27,2.57v11.42v-6.67c0-1-1.48-1.48-3.01-1.39c-1.66,0.09-3.01,1.48-3.01,3.09v2.4
		c0,1.92,0.44,3.75,1.26,5.49l5.84,11.81C265.6,54.31,266.82,55.05,268.17,55.05z"/>
	<circle class="st2" cx="274.65" cy="50.79" r="1.8"/>
</g>
<g>
	<path class="st3" d="M178.88,31.43"/>
	<g>
		<path class="st3" d="M190.91,39.02c-0.71,1.5-1.33,2.82-1.96,4.13c-1.07,2.2-1.38,4.5-0.88,6.91c0.59,2.87,3,4.99,5.66,5
			c1.56,0,2.37-0.72,2.55-2.24c0.14-1.24,0.27-2.48,0.47-3.71c0.26-1.56,0.57-3.21,1.91-4.17c2.09-1.5,3.16-3.57,4.13-5.84
			c0.77-1.8,1.91-3.45,2.95-5.14c0.4-0.65,0.96-0.83,1.71-0.32c0.43,0.29,1.01,0.45,1.53,0.47c1.63,0.06,3.26,0.07,4.89,0.01
			c1.7-0.06,3.01-1.35,3.02-3.01c0.03-5.18,0.02-10.36,0-15.55c-0.01-1.14-0.53-2.2-1.59-2.54c-2.56-0.82-5.24-0.86-7.78,0.03
			c-0.82,0.29-1.49,0.44-2.33,0.31c-3.31-0.5-6.62-1.14-9.96-1.37c-3.11-0.21-6.27-0.13-9.38,0.11c-3.1,0.24-5.51,3.1-5.4,6
			c-2.7,1.66-3.42,3.44-2.3,5.93c0.27,0.59,0.21,0.96-0.17,1.44c-1.29,1.63-1.35,3.34-0.16,5.04c0.37,0.52,0.34,0.92,0.11,1.48
			c-1.21,2.88-0.16,5.3,2.75,6.42c0.47,0.18,0.98,0.34,1.48,0.36c2.46,0.11,4.92,0.18,7.38,0.26
			C189.91,39.03,190.28,39.02,190.91,39.02z"/>
	</g>
	<circle class="st0" cx="192.87" cy="48.58" r="1.8"/>
</g>
<g>
	<path class="st3" d="M156.96,27.88c0.71-1.5,1.33-2.82,1.96-4.13c1.07-2.2,1.38-4.5,0.88-6.91c-0.59-2.87-3-4.99-5.66-5
		c-1.56,0-2.37,0.72-2.55,2.24c-0.14,1.24-0.27,2.48-0.47,3.71c-0.26,1.56-0.57,3.21-1.91,4.17c-2.09,1.5-3.16,3.57-4.13,5.84
		c-0.77,1.8-1.91,3.45-2.95,5.14c-0.4,0.65-0.96,0.83-1.71,0.32c-0.43-0.29-1.01-0.45-1.53-0.47c-1.63-0.06-3.26-0.07-4.89-0.01
		c-1.7,0.06-3.01,1.35-3.02,3.01c-0.03,5.18-0.02,10.36,0,15.55c0.01,1.14,0.53,2.2,1.59,2.54c2.56,0.82,5.24,0.86,7.78-0.03
		c0.82-0.29,1.49-0.44,2.33-0.31c3.31,0.5,6.62,1.14,9.96,1.37c3.11,0.21,6.27,0.13,9.38-0.11c3.1-0.24,5.51-3.1,5.4-6
		c2.7-1.66,3.42-3.44,2.3-5.93c-0.27-0.59-0.21-0.96,0.17-1.44c1.29-1.63,1.35-3.34,0.16-5.04c-0.37-0.52-0.34-0.92-0.11-1.48
		c1.21-2.88,0.16-5.3-2.75-6.42c-0.47-0.18-0.98-0.34-1.48-0.36c-2.46-0.11-4.92-0.18-7.38-0.26
		C157.96,27.87,157.59,27.88,156.96,27.88z"/>
	<circle class="st0" cx="150.57" cy="50.49" r="1.8"/>
</g>
<g>
	<g id="_x30_gihv5_1_">
		<g>
			<path class="st0" d="M106.83,18.4 M114.22,23.31c0-1.68,0.01-3.05,0-4.73c0-0.24-0.02-0.49-0.06-0.72
				c-0.31-1.9-2.42-2.54-4.42-2.38 M121.67,25.61v-1.09c0-2,0-4,0-6c0,0,0-0.01,0-0.01c0-0.49-0.19-0.97-0.52-1.33
				c-0.07-0.07-0.14-0.15-0.21-0.23c-0.28-0.3-0.61-0.55-0.97-0.74c-1.73-0.88-3.73-0.61-5.03,0.84c-0.42,0.46-0.71,0.81-0.71,1.33
				c-0.01,1.68,0.01,0.29,0.01,2.21"/>
			<path class="st0" d="M117.59,33.29c0.17,0.02,0.44-0.07,0.5-0.19c0.06-0.12-0.02-0.42-0.14-0.51c-0.19-0.14-0.46-0.21-0.71-0.25
				c-1.72-0.29-3.45-0.24-5.18-0.2c-0.72,0.01-1.45,0.07-2.15-0.04c-1.77-0.28-3.02-1.75-2.92-3.86c0.08-1.71,1.55-3.13,3.28-3.3
				c2.43-0.24,4.86-0.39,7.3-0.29c0.89,0.04,1.79,0.16,2.67,0.32c0.4,0.07,0.82,0.18,1.15,0.42c1.37,0.99,2.75,1.98,4.05,3.06
				c1.13,0.94,1.38,2.2,1.05,3.63c-0.67,2.94-1.32,5.89-1.96,8.84c-0.42,1.95-1.48,6.22-3,7.46l-2,1.88
				c-1.53,1.44-3.53,1.11-5.63,1.19l-12.81-0.17c-2.08,0.07-4.18-2.11-5.67-4.12c-1.31-1.76-2.17-3.82-2.51-5.99
				c-0.39-2.46-1.31-8.33-1.35-9.38c-0.05-1.59-0.02-3.18-0.02-4.77c0-0.02,0.02-0.04,0.03-0.06"/>
			<path class="st0" d="M91.56,24.57c-0.06-1.67-0.05-3.34,0.03-5c0.08-1.74,1.77-3.1,3.59-3.09c1.77,0.01,3.71,1.08,3.81,2.82
				c0.01-1.82,1.64-3.45,3.38-3.59c1.1-0.08,2.43,0.29,3.2,0.98c0.58,0.52,1.01,1.22,1.11,1.99v0.01c0.01-1.78,1.38-3.09,3.06-3.22
				c1.99-0.16,4.1,0.48,4.42,2.38c0.04,0.24,0.06,0.48,0.06,0.72"/>
		</g>
	</g>
	<line class="st0" x1="91.54" y1="27.02" x2="91.56" y2="24.57"/>
	<path class="st0" d="M98.99,19.29v5.16c-0.09,1.74-1.34,2.8-3.11,2.82c-1.82,0.01-2.82-0.65-2.9-2.39"/>
	<path class="st0" d="M106.69,18.68v5.42c0,0.91-0.35,1.8-1.01,2.43c-0.03,0.03-0.06,0.06-0.1,0.09c-0.77,0.69-1.56,1.07-2.67,0.98
		c-1.74-0.13-2.92-0.75-2.93-2.57"/>
	<circle class="st0" cx="108.85" cy="46.49" r="1.8"/>
</g>
<g>
	<path class="st3" d="M294.86,39.57c-0.47-0.24-0.76-0.6-0.99-1.02c-0.7-1.29-0.53-2.94,0.46-4c1.45-1.56,2.65-3.1,4.13-4.64
		c0.7-0.73,1.55-1.07,2.52-1.07c0.52,0,1.04,0,1.6,0c-0.09-0.14-0.16-0.24-0.23-0.35c-0.29-0.43-0.59-0.87-0.89-1.29
		c-0.06-0.08-0.14-0.16-0.22-0.21c-1.85-1.09-3.7-2.18-5.55-3.26c-1.16-0.68-1.84-2.09-1.61-3.41c0.26-1.52,1.28-2.59,2.67-2.78
		c0.59-0.08,1.17,0.02,1.7,0.32c1.45,0.83,2.89,1.68,4.33,2.52c0.72,0.42,1.43,0.84,2.15,1.25c0.05,0.03,0.1,0.05,0.18,0.05
		c-0.05-0.07-0.1-0.14-0.15-0.2c-1.08-1.42-2.16-2.83-3.23-4.26c-1.07-1.44-0.86-3.5,0.47-4.67c1.26-1.11,3.25-0.88,4.31,0.51
		c0.84,1.1,1.67,2.21,2.5,3.32c0.72,0.95,1.42,1.91,2.16,2.85c0.25,0.31,0.39,0.65,0.48,1.04c0.23,1.03,0.47,2.05,0.71,3.08
		c0.02,0.07,0.04,0.13,0.1,0.19c0-0.07,0-0.14,0-0.21c0-1.47-0.01-2.95,0-4.42c0.01-1.6,1.05-2.95,2.51-3.24
		c1.85-0.37,3.33,1.17,3.35,3.2c0.01,1.34,0,2.68,0,4.02c0,3.46,0,6.91,0,10.37c0,0.17,0.04,0.29,0.15,0.41
		c1.28,1.46,2.56,2.92,3.85,4.38c0.27,0.31,0.4,0.63,0.4,1.06c-0.01,4.89,0,9.78,0,14.67c0,0.11,0,0.21,0,0.32
		c-0.04,0.72-0.58,1.12-1.21,0.89c-1.08-0.39-2.15-0.8-3.23-1.18c-1.04-0.37-1.81-0.78-2.88-1.05c-2.48-0.62-4.93-0.38-7.31,0.6
		c-0.66,0.27-1.32,0.56-2,0.77c-1.22,0.37-2.41,0.18-3.51-0.51c-1.53-0.96-3.06-1.93-4.58-2.91c-0.15-0.1-0.29-0.26-0.37-0.43
		c-1.09-2.24-1.9-4.49-2.99-6.73c-0.36-0.74-0.72-1.48-1.07-2.23c-0.28-0.59-0.09-1.15,0.48-1.4
		C294.29,39.82,294.55,39.71,294.86,39.57z M298.54,39.21c-0.02-0.01-0.04-0.03-0.06-0.04c0.03,0.01,0.05,0.03,0.08,0.04
		c0.97,0.4,1.72,1.08,2.26,2.03c0.52,0.9,1.04,1.79,1.57,2.68c0.04,0.07,0.13,0.15,0.21,0.17c1.06,0.24,2.13,0.46,3.19,0.7
		c0.15,0.03,0.25,0.01,0.36-0.12c0.86-1,1.73-2,2.6-2.99c0.1-0.11,0.12-0.19,0.05-0.34c-0.69-1.51-1.37-3.02-2.04-4.53
		c-0.05-0.12-0.12-0.17-0.24-0.18c-0.45-0.07-0.9-0.15-1.34-0.23c-1.14-0.19-2.27-0.38-3.41-0.58c-0.11-0.02-0.2,0.01-0.28,0.1
		c-0.34,0.37-0.69,0.72-1.02,1.09C299.83,37.74,299.18,38.48,298.54,39.21z"/>
	<line class="st3" x1="305.11" y1="21.69" x2="307.93" y2="23.23"/>
	<line class="st3" x1="312.36" y1="23.35" x2="313.04" y2="25.98"/>
	<circle class="st0" cx="318" cy="48.99" r="1.8"/>
</g>
<g>
	<g id="bbS6SG.tif">
		<g>
			<path class="st3" d="M338.05,24.95c0-0.33-0.12-0.79-0.12-1c0-2.19-0.22-6.43-0.25-8.63c-0.01-0.58-0.29-1.16-0.7-1.71
				c-1.83-2.45-4.54-2.36-6.05,0.3c-0.11,0.19-0.2,0.39-0.26,0.58c-0.11,0.33-0.13,0.93-0.11,1.53c0.03,1.1-0.07,2.21-0.31,3.29
				l-2.33,10.73c-0.51,2.33-0.64,4.72-0.4,7.09l0.04,2.24c0.08,4.48,1.94,8.75,5.23,11.79c0.58,0.53,1.15,1.03,1.69,1.47
				c2.59,2.13,6.04,2.94,9.27,2.07c0.27-0.07,0.53-0.15,0.79-0.25c4.08-1.52,8.59-3.48,11.79-6.44
				c2.96-2.74,11.44-11.71,14.76-15.24c0.95-1.01,1.54-2.31,1.64-3.69c0-0.01,0-0.02,0-0.03c0.15-2.09-1.32-3.47-3.42-3.35
				c-0.01,0-0.01,0-0.02,0c-0.81,0.05-1.56,0.42-2.1,1.01c-1.42,1.53-4.32,4.27-5.14,5.12c-0.05,0.05-0.13,0.03-0.15-0.03
				c-0.73-2.11-1.92-3.5-4.39-4.04c0.95-2.97-0.88-5.96-4.15-6.17c-0.06-0.8,0-1.62-0.2-2.37c-0.88-3.32-4.89-4.13-7.4-1.68
				c-1.76,1.71-5.4,5.15-7.13,6.89C338.47,24.57,338.31,24.71,338.05,24.95z"/>
		</g>
	</g>
	<line class="st3" x1="353.34" y1="21.59" x2="345.37" y2="29.56"/>
	<line class="st3" x1="357.5" y1="27.75" x2="352.66" y2="32.59"/>
	<line class="st3" x1="361.94" y1="31.93" x2="358.25" y2="35.62"/>
	<circle class="st0" cx="336.82" cy="46.23" r="1.8"/>
</g>
<g>
	<g id="jFkyIC_1_">
		<g>
			<path class="st3" d="M63.79,25.78c1.8-1.94,4.59-1.87,6.14,0.27c1.34-2.79,4.56-3.03,6.53-0.92c0-0.27,0-0.46,0-0.64
				c0-3,0-6,0.01-9c0-1.41,0.65-2.48,1.9-3.16c1.27-0.69,2.32-0.63,3.53,0.15c1.13,0.72,1.66,1.79,1.66,3.12
				c-0.01,3.28,0,6.55,0,9.83c0,2.44-0.01,4.89,0.02,7.33c0,0.24,0.17,0.55,0.37,0.71c0.7,0.6,1.46,1.12,2.16,1.71
				c1.09,0.92,1.58,2.1,1.28,3.51c-0.57,2.65-1.19,5.3-1.77,7.95c-0.46,2.07-1.8,3.49-3.46,4.7c-10.08,7.34-25.11,3.68-25.23-10.04
				c-0.01-0.85-0.24-1.69-0.24-2.54c-0.02-6.59-0.02-13.19-0.01-19.78c0-2.11,1.57-3.7,3.64-3.73c2.07-0.02,3.46,1.61,3.48,3.73
				c0.01,2.03,0,4.05,0.01,6.08C63.79,25.26,63.79,25.45,63.79,25.78z M79.22,39.6c-0.52-0.04-1.03-0.18-1.55-0.19
				c-1.27-0.03-2.54-0.08-3.8,0.01c-1.59,0.12-3.02-0.63-3.76-1.9c-0.44-0.77-0.56-1.43-0.38-2.28c0.09-0.43,0.31-0.82,0.61-1.14
				l0.01-0.01c1.21-1.29,2.87-2.09,4.64-2.25c1.2-0.11,2.13-0.07,2.13-0.07 M77.12,31.76c0.53,0.02,2.3,0.22,3.31,0.33
				c0.48,0.05,0.94,0.15,1.4,0.3"/>
		</g>
	</g>
	<path class="st3" d="M63.79,25.78"/>
	<line class="st3" x1="69.93" y1="26.04" x2="69.93" y2="29.66"/>
	<line class="st3" x1="76.46" y1="25.12" x2="76.46" y2="29.35"/>
	<path class="st3" d="M63.79,25.78"/>
	<line class="st3" x1="63.79" y1="25.78" x2="63.79" y2="29.55"/>
	<circle class="st0" cx="71.27" cy="50.55" r="1.8"/>
</g>
<g>
	<path class="st4" d="M406.06,37.78c-0.67-0.11-1.11-0.67-0.99-1.26l4.56-19.08c0.1-0.5-0.06-1.04-0.44-1.49
		c-0.38-0.46-0.97-0.77-1.6-0.86c-0.64-0.1-1.31,0.03-1.84,0.33c-0.52,0.31-0.87,0.76-0.97,1.28l-2.92,10.65
		c-0.13,0.58-0.79,0.96-1.44,0.85c-0.67-0.12-1.1-0.68-0.98-1.27l3.33-12.75c0.09-0.49-0.06-1.02-0.44-1.46
		c-0.39-0.45-0.98-0.76-1.61-0.85c-0.63-0.09-1.3,0.04-1.84,0.35c-0.53,0.31-0.88,0.78-0.99,1.3l-4.58,15.31
		c-0.06,0.24-0.22,0.46-0.42,0.65c-0.64,0.63-1.85,0.52-2.3-0.23c-0.05-0.09-0.1-0.18-0.13-0.27l-4.94-12.74
		c-0.34-1.1-1.7-1.73-2.99-1.42c-1.29,0.31-2.1,1.47-1.76,2.54l4.19,11.02"/>
	<path class="st4" d="M384.97,28.39l0.65,2.09c0.2,0.57-0.15,1.17-0.8,1.36c-0.65,0.18-1.34-0.14-1.55-0.7l-3.97-10.31
		c-0.17-0.55-0.56-0.97-1.12-1.23c-0.56-0.26-1.25-0.33-1.87-0.18c-0.62,0.14-1.16,0.51-1.5,1c-0.33,0.48-0.43,1.03-0.27,1.54
		l4.59,12.31c0.04,0.1,0.05,0.21,0.05,0.32V45.3c0,6.95,8.26,9.23,9.64,9.75h12.45c4.27,0,8.4-6.79,11.42-12.53
		c1.5-2.84,2.79-5.3,4.01-6.81c0.73-0.89,1.05-2.26,0.04-3.14c-0.94-0.82-2.8-0.87-3.68-0.1l-5.9,5.04
		c-0.48,0.41-1.26,0.39-1.74-0.02"/>
	<circle class="st2" cx="394.49" cy="50.35" r="1.8"/>
</g>
<g>
	<path class="st3" d="M28.96,54.74c-2.51,0.1-5.02,0.17-7.52,0.3c-0.86,0.05-1.59-0.21-2.18-0.75c-0.66-0.6-5.47-4.45-5.52-5.33
		c-0.1-1.71-0.09-3.42-0.12-5.13c-0.03-1.93-0.06-3.86-0.07-5.79c-0.01-1.24,0.01-2.49,0.01-3.73c-0.04-5.32-0.22-19.97-0.21-20.29
		c0.05-1.06,1.27-1.88,2.34-1.85l0.06,0c1.02,0.03,1.85,0.84,1.91,1.86v0c0.21,4.2,0.12,9.11,0.33,13.33
		c0.01,0.29,0.26,0.52,0.55,0.52l1.25,0c0.32,0,0.57-0.26,0.57-0.57c-0.02-2.36-0.12-11.52-0.11-13c0.01-1.42,0.96-2.44,2.27-2.45
		c1.27-0.01,2.21,0.97,2.22,2.41c0.03,4.18,0.03,8.37,0.04,12.55c0,0.96,0.07,1.02,1.02,1.02c2.13-0.01,1.79,0.04,1.81-1.81
		c0.04-3.93,0.05-7.85,0.08-11.78c0.02-1.71,1.48-2.8,3-2.28c0.91,0.32,1.49,1.17,1.5,2.33c0.02,3.09,0.01,6.18,0.02,9.27
		c0,1.18,0.02,2.36,0.01,3.54c-0.01,0.49,0.21,0.68,0.69,0.72c1.67,0.11,1.75,0.06,1.77-1.6c0.04-4.08,0.06-8.45,0.09-12.53
		c0-0.24,0.1-0.48,0.25-0.71c0.85-1.27,3.08-1.3,3.92-0.02c0.14,0.22,0.23,0.44,0.24,0.67c0.16,6.52-0.1,13.58,0.12,20.09
		c0.02,0.48,0.76,1.42,1.41,1.57c0.63,0.14,0.67-0.32,1-0.75c0.75-0.99,1.42-2.05,2.27-2.95c0.83-0.88,1.77-1.4,2.8-2.03
		c1.81-1.09,2.21-0.93,3.39,0.84c0.05,0.07,0.09,0.14,0.14,0.21c0.65,0.86,0.66,1.63,0.04,2.61c-4.4,6.99-7.83,13.41-12.17,20.44
		c-0.32,0.52-0.7,0.73-1.3,0.74C34.23,54.52,31.6,54.64,28.96,54.74C28.96,54.74,28.96,54.74,28.96,54.74z"/>
	<circle class="st0" cx="27.29" cy="50.93" r="1.8"/>
</g>
</svg>
